<svg width="55.702" height="55.702" xmlns="http://www.w3.org/2000/svg">

 <g>
  <title>background</title>
  <rect fill="none" id="canvas_background" height="48" width="48" y="-1" x="-1"/>
 </g>
 <g>
  <title>Layer 1</title>
  <g id="svg_1">
   <g id="svg_2">
    <path id="svg_3" fill="#61b225" d="m27.851,0c-15.357,0 -27.851,12.494 -27.851,27.851s12.494,27.851 27.851,27.851s27.851,-12.494 27.851,-27.851c-0.001,-15.357 -12.494,-27.851 -27.851,-27.851zm0,51.213c-12.882,0 -23.362,-10.48 -23.362,-23.363c0,-12.882 10.48,-23.362 23.362,-23.362s23.362,10.481 23.362,23.363s-10.48,23.362 -23.362,23.362z"/>
    <path id="svg_4" fill="#61b225" d="m36.729,18.97l-13,13.001l-4.757,-4.757c-0.876,-0.877 -2.297,-0.877 -3.173,0c-0.877,0.876 -0.877,2.297 0,3.173l6.344,6.344c0.438,0.438 1.013,0.658 1.587,0.658s1.148,-0.219 1.586,-0.658l14.587,-14.587c0.876,-0.877 0.876,-2.297 0,-3.174c-0.877,-0.876 -2.297,-0.876 -3.174,0z"/>
   </g>
  </g>
  <g id="svg_5"/>
  <g id="svg_6"/>
  <g id="svg_7"/>
  <g id="svg_8"/>
  <g id="svg_9"/>
  <g id="svg_10"/>
  <g id="svg_11"/>
  <g id="svg_12"/>
  <g id="svg_13"/>
  <g id="svg_14"/>
  <g id="svg_15"/>
  <g id="svg_16"/>
  <g id="svg_17"/>
  <g id="svg_18"/>
  <g id="svg_19"/>
 </g>
</svg>